<?xml version="1.0" encoding="UTF-8"?>
<svg width="40px" height="40px" viewBox="0 0 40 40" version="1.1" xmlns="http://www.w3.org/2000/svg" xmlns:xlink="http://www.w3.org/1999/xlink">
    <title>Assistant Avatar</title>
    <g stroke="none" stroke-width="1" fill="none" fill-rule="evenodd">
        <circle fill="#4A90E2" cx="20" cy="20" r="20"></circle>
        <path d="M20,10 C15.582,10 12,13.582 12,18 C12,20.525 13.375,22.747 15.44,24 C15.166,24.499 14.836,24.965 14.44,25.373 C13.574,26.263 12.5,26.824 11.44,27 C11.907,27.24 12.415,27.363 12.934,27.373 C14.15,27.373 15.316,26.839 16.213,25.92 C17.364,26.627 18.682,27 20,27 C24.418,27 28,23.418 28,19 C28,14.582 24.418,11 20,11 L20,10 Z" fill="#FFFFFF" fill-rule="nonzero"></path>
    </g>
</svg>
