<svg id="Logo_-_Nav" data-name="Logo - Nav" xmlns="http://www.w3.org/2000/svg" width="228.899" height="29.373" viewBox="0 0 228.899 29.373">
  <g id="Group_2" data-name="Group 2">
    <path id="Path_1" data-name="Path 1" d="M59.951,23c5.027.869,7.962,2,7.962,3.24,0,2.464-12.17,4.509-28.129,4.9,0,0-5.139.067-5.531.067A164.36,164.36,0,0,1,9.085,29.539l2.792-3.087c3.557.611,11.56,1.065,21.225,1.167a14.572,14.572,0,0,1-1.227-4.4c-5.2-.875-8.242-2.026-8.242-3.288,0-1.306,3.418-2.494,9.007-3.381A14.712,14.712,0,0,1,49.83,7.217a14.366,14.366,0,0,0-12.2,8.679,191.128,191.128,0,0,1,19.658-.934A164.453,164.453,0,0,1,82.461,16.63l-2.793,3.087c-4.057-.7-13.9-1.189-25.4-1.189-6.668,0-12.779.166-17.528.441l-4.805.361c-3.177.311-5.045.69-5.045,1.1s1.745.764,4.73,1.068l.153.05v-.031c0-.513.077-1.333.077-1.333h4.693a14.754,14.754,0,0,0,1.1,7.458c14.947-.014,27-.859,27-1.9,0-.4-1.745-.764-4.73-1.068l.03-1.67Z" transform="translate(-9.085 -6.83)" fill="#0091cd"/>
    <path id="Path_2" data-name="Path 2" d="M196.236,176.7a14.638,14.638,0,0,0,7.062,3.9q-.684.066-1.384.065A14.632,14.632,0,0,1,191.88,176.7Z" transform="translate(-164.534 -151.286)" fill="#0091cd"/>
  </g>
  <g id="Group_3" data-name="Group 3" transform="translate(77.713 7.247)">
    <path id="Path_3" data-name="Path 3" d="M528.683,77.948a18.3,18.3,0,0,0,2.442.648,13.553,13.553,0,0,0,2.511.251,9.658,9.658,0,0,0,3.315-.534,5.233,5.233,0,0,0,2.439-1.743,5.152,5.152,0,0,0,.95-3.16,4.327,4.327,0,0,0-.438-2.03,4.064,4.064,0,0,0-1.589-1.606,10.73,10.73,0,0,0-3.156-1.156,4.637,4.637,0,0,1-1.843-.7,1.063,1.063,0,0,1-.461-.89,1.435,1.435,0,0,1,.616-1.243,3.649,3.649,0,0,1,2.1-.484,8.891,8.891,0,0,1,1.6.187,11.781,11.781,0,0,1,1.76.481l1.175-2.949a17.266,17.266,0,0,0-2.482-.751,12.184,12.184,0,0,0-2.586-.285,8.646,8.646,0,0,0-3.02.539,5.86,5.86,0,0,0-2.446,1.655,4.289,4.289,0,0,0-1.008,2.827,4.89,4.89,0,0,0,.559,2.443,3.862,3.862,0,0,0,1.393,1.41,7.534,7.534,0,0,0,1.8.754q.95.261,1.8.48a4.312,4.312,0,0,1,1.382.592,1.288,1.288,0,0,1,.553,1.094,1.472,1.472,0,0,1-.841,1.437,4.169,4.169,0,0,1-1.808.313,9.928,9.928,0,0,1-1.9-.232q-1.023-.219-1.782-.458l-1.037,3.11Z" transform="translate(-528.568 -60.98)" fill="#2b2b2b"/>
    <path id="Path_4" data-name="Path 4" d="M620.142,99.627a7.537,7.537,0,0,1-1.514.853,4.7,4.7,0,0,1-1.757.3,3.15,3.15,0,0,1-1.706-.428,2.247,2.247,0,0,1-.851-.964,2.482,2.482,0,0,1-.231-1.026h8.04a11.079,11.079,0,0,0-.522-3.617,5.066,5.066,0,0,0-1.812-2.542,5.836,5.836,0,0,0-3.471-.96,6.106,6.106,0,0,0-3.226.9,6.253,6.253,0,0,0-2.2,2.339,6.746,6.746,0,0,0-.815,3.234,6.465,6.465,0,0,0,.652,2.868,5.355,5.355,0,0,0,2.014,2.212,6.539,6.539,0,0,0,3.462.886,9.56,9.56,0,0,0,2.819-.432,7.081,7.081,0,0,0,2.456-1.3l-1.336-2.327Zm-6.012-3.616a3.229,3.229,0,0,1,.864-1.573,2.311,2.311,0,0,1,1.624-.708,1.721,1.721,0,0,1,1.457.691,2.682,2.682,0,0,1,.455,1.59Z" transform="translate(-597.882 -85.862)" fill="#2b2b2b" fill-rule="evenodd"/>
    <path id="Path_5" data-name="Path 5" d="M694.2,103.79H698.2l.069-6.7c0-.09.111-.241.319-.455a3.346,3.346,0,0,1,.846-.6,2.705,2.705,0,0,1,1.209-.3,4.229,4.229,0,0,1,.791.072,6.084,6.084,0,0,1,.637.158L702.6,92a5.677,5.677,0,0,0-.648-.1,6.456,6.456,0,0,0-.665-.035,2.865,2.865,0,0,0-1.837.607,4.876,4.876,0,0,0-1.112,1.351H698.3V92.18h-4.008l-.092,11.61Z" transform="translate(-669.419 -86.385)" fill="#2b2b2b"/>
    <path id="Path_6" data-name="Path 6" d="M756.339,105.623h4.584l4.054-11.61H760.9l-2.1,7.6h-.046l-1.913-7.6H752.63l3.709,11.61Z" transform="translate(-719.111 -88.218)" fill="#2b2b2b"/>
    <path id="Path_7" data-name="Path 7" d="M837.376,76.291h4.008l.092-11.61h-4.008l-.092,11.61Zm.092-13.453h4.008V59.521h-4.008v3.317Z" transform="translate(-791.179 -58.886)" fill="#2b2b2b" fill-rule="evenodd"/>
    <path id="Path_8" data-name="Path 8" d="M875.621,99.835a8.7,8.7,0,0,1-1.04.455,3.438,3.438,0,0,1-1.126.213,2.989,2.989,0,0,1-2.136-.863,2.955,2.955,0,0,1-.858-2.108,2.986,2.986,0,0,1,.918-2.272,3.5,3.5,0,0,1,2.421-.839,3.782,3.782,0,0,1,.963.135,6.983,6.983,0,0,1,.926.325l1.29-2.626a6.444,6.444,0,0,0-1.787-.723,8.822,8.822,0,0,0-2.151-.291,6.644,6.644,0,0,0-4.78,1.78,6.446,6.446,0,0,0-1.809,4.716,5.691,5.691,0,0,0,1.785,4.406,6.691,6.691,0,0,0,4.55,1.537,8.491,8.491,0,0,0,2.217-.34,8.108,8.108,0,0,0,2.045-.858l-1.428-2.649Z" transform="translate(-815.905 -85.862)" fill="#2b2b2b"/>
    <path id="Path_9" data-name="Path 9" d="M943.943,99.627a7.5,7.5,0,0,1-1.514.853,4.7,4.7,0,0,1-1.757.3,3.147,3.147,0,0,1-1.705-.428,2.245,2.245,0,0,1-.851-.964,2.483,2.483,0,0,1-.231-1.026h8.039a11.068,11.068,0,0,0-.522-3.617,5.066,5.066,0,0,0-1.812-2.542,5.839,5.839,0,0,0-3.471-.96,6.11,6.11,0,0,0-3.226.9,6.259,6.259,0,0,0-2.2,2.339,6.743,6.743,0,0,0-.814,3.234,6.453,6.453,0,0,0,.651,2.868,5.352,5.352,0,0,0,2.014,2.212,6.541,6.541,0,0,0,3.463.886,9.559,9.559,0,0,0,2.819-.432,7.093,7.093,0,0,0,2.457-1.3l-1.337-2.327Zm-6.013-3.616a3.233,3.233,0,0,1,.865-1.573,2.309,2.309,0,0,1,1.624-.708,1.724,1.724,0,0,1,1.458.691,2.682,2.682,0,0,1,.455,1.59Z" transform="translate(-873.244 -85.862)" fill="#2b2b2b" fill-rule="evenodd"/>
    <path id="Path_10" data-name="Path 10" d="M1031.491,63.136a7.069,7.069,0,0,0-2.085-.827,12.549,12.549,0,0,0-2.915-.325,9.655,9.655,0,0,0-6.749,2.28,7.948,7.948,0,0,0-2.4,6.013,8.008,8.008,0,0,0,8.616,8.57,13.165,13.165,0,0,0,3.078-.354,9.094,9.094,0,0,0,2.2-.821l-1.22-2.973q-.9.325-1.648.571a6.475,6.475,0,0,1-1.923.258,4.582,4.582,0,0,1-3.538-1.5,5.445,5.445,0,0,1-1.276-3.66,4.924,4.924,0,0,1,1.506-3.682,5.423,5.423,0,0,1,3.769-1.385,7.632,7.632,0,0,1,1.685.207,5.815,5.815,0,0,1,1.633.622l1.267-2.995Z" transform="translate(-944.226 -60.98)" fill="#2b2b2b"/>
    <path id="Path_11" data-name="Path 11" d="M1117.608,99.627a7.531,7.531,0,0,1-1.515.853,4.7,4.7,0,0,1-1.757.3,3.148,3.148,0,0,1-1.705-.428,2.251,2.251,0,0,1-.851-.964,2.461,2.461,0,0,1-.231-1.026h8.039a11.068,11.068,0,0,0-.522-3.617,5.065,5.065,0,0,0-1.813-2.542,5.834,5.834,0,0,0-3.47-.96,6.1,6.1,0,0,0-3.226.9,6.242,6.242,0,0,0-2.2,2.339,6.744,6.744,0,0,0-.815,3.234,6.453,6.453,0,0,0,.652,2.868,5.347,5.347,0,0,0,2.014,2.212,6.537,6.537,0,0,0,3.462.886,9.563,9.563,0,0,0,2.819-.432,7.077,7.077,0,0,0,2.456-1.3l-1.336-2.327Zm-6.012-3.616a3.211,3.211,0,0,1,.864-1.573,2.31,2.31,0,0,1,1.624-.708,1.724,1.724,0,0,1,1.457.691,2.684,2.684,0,0,1,.455,1.59Z" transform="translate(-1020.928 -85.862)" fill="#2b2b2b" fill-rule="evenodd"/>
    <path id="Path_12" data-name="Path 12" d="M1191.209,103.265h4.009l.092-7.509a4.776,4.776,0,0,1,1.005-.72,2.5,2.5,0,0,1,1.091-.34,1.319,1.319,0,0,1,1.175.487,2.068,2.068,0,0,1,.276,1.195q0,1.793-.014,3.5t-.031,3.383h4.008q.019-1.923.031-3.811t.014-3.675a5.144,5.144,0,0,0-.976-3.461,3.54,3.54,0,0,0-2.825-1.077,4.843,4.843,0,0,0-2.068.5,6.413,6.413,0,0,0-1.687,1.178V91.655H1191.3l-.092,11.61Z" transform="translate(-1092.08 -85.86)" fill="#2b2b2b"/>
    <path id="Path_13" data-name="Path 13" d="M1270.477,74.524h1.728q-.007,1.153-.057,2.243t-.058,2.157a12.446,12.446,0,0,0,.162,2.412,2.741,2.741,0,0,0,.92,1.679,3.616,3.616,0,0,0,2.327.631,7.348,7.348,0,0,0,2.05-.307,8.13,8.13,0,0,0,1.912-.844l-.875-2.718a6,6,0,0,1-.7.38,1.941,1.941,0,0,1-.772.173,1.024,1.024,0,0,1-.913-.369,1.97,1.97,0,0,1-.238-1.128q.007-.769.057-1.921t.057-2.387h3.294l.069-2.9h-3.294l.092-3.939h-3.87l-.092,3.939h-1.705l-.092,2.9Z" transform="translate(-1159.49 -65.826)" fill="#2b2b2b"/>
    <path id="Path_14" data-name="Path 14" d="M1335.745,103.79h4.009l.069-6.7c0-.09.11-.241.319-.455a3.332,3.332,0,0,1,.845-.6,2.7,2.7,0,0,1,1.209-.3,4.254,4.254,0,0,1,.792.072,6.064,6.064,0,0,1,.636.158l.53-3.963a5.711,5.711,0,0,0-.648-.1,6.462,6.462,0,0,0-.665-.035,2.868,2.868,0,0,0-1.837.607,4.88,4.88,0,0,0-1.112,1.351h-.046V92.18h-4.008l-.093,11.61Z" transform="translate(-1214.993 -86.385)" fill="#2b2b2b"/>
    <path id="Path_15" data-name="Path 15" d="M1387.983,95.412q.775-.427,1.6-.833a4.214,4.214,0,0,1,1.739-.435,1.286,1.286,0,0,1,.93.334,1.383,1.383,0,0,1,.359,1.025v.438c-.551.048-1.083.113-1.6.2s-.958.171-1.325.265a6.484,6.484,0,0,0-2.845,1.313,3.352,3.352,0,0,0-.979,2.626,3.169,3.169,0,0,0,1.034,2.457,3.874,3.874,0,0,0,2.605.883,4.958,4.958,0,0,0,1.8-.365,6.234,6.234,0,0,0,1.56-.9,1.38,1.38,0,0,0,.645.954,2.528,2.528,0,0,0,1.336.313,7.173,7.173,0,0,0,.99-.092,10.668,10.668,0,0,0,1.215-.252,2.766,2.766,0,0,0,.882-.369l-.438-2.188a.593.593,0,0,1-.216.1,1.042,1.042,0,0,1-.268.034.6.6,0,0,1-.524-.228.93.93,0,0,1-.144-.556v-5.62a3.115,3.115,0,0,0-.971-2.465,3.83,3.83,0,0,0-2.577-.806,10.025,10.025,0,0,0-3.225.51,14.428,14.428,0,0,0-2.948,1.425l1.359,2.235Zm4.63,4.883q-.025.215-.5.476a2.493,2.493,0,0,1-1.109.285,1.648,1.648,0,0,1-.945-.294,1.058,1.058,0,0,1-.46-.881,1.6,1.6,0,0,1,.783-1.391,3.328,3.328,0,0,1,1.544-.474c.16-.013.3-.028.406-.046l.285-.046v2.372Z" transform="translate(-1257.615 -85.862)" fill="#2b2b2b" fill-rule="evenodd"/>
    <path id="Path_16" data-name="Path 16" d="M1470.542,73.409h4.008l.092-17.276h-4.008l-.092,17.276Z" transform="translate(-1329.625 -56.005)" fill="#2b2b2b"/>
    <path id="Path_17" data-name="Path 17" d="M1521.406,62.828a.727.727,0,0,0-.235-1.426h-.927a.075.075,0,0,0-.075.075v2.089a.075.075,0,0,0,.075.075h.256a.075.075,0,0,0,.075-.075v-.71h.343l.659.759a.075.075,0,0,0,.057.026h.284a.075.075,0,0,0,.075-.075v-.044a.075.075,0,0,0-.019-.05Zm-.831-1.025h.6a.327.327,0,0,1,.361.33.345.345,0,0,1-.377.344h-.58Z" transform="translate(-1371.828 -60.486)" fill="#2b2b2b"/>
    <path id="Path_18" data-name="Path 18" d="M1513.9,55.276a2.066,2.066,0,1,0,2.044,2.066A1.967,1.967,0,0,0,1513.9,55.276Zm0,3.736a1.674,1.674,0,1,1,1.621-1.67A1.556,1.556,0,0,1,1513.9,59.012Z" transform="translate(-1364.759 -55.276)" fill="#2b2b2b"/>
  </g>
</svg>
